<svg width="26" height="26" viewBox="0 0 26 26" fill="none" xmlns="http://www.w3.org/2000/svg">
<path d="M3.00004 13.5L2.29293 12.7929L1.58582 13.5L2.29293 14.2071L3.00004 13.5ZM4.53337 12.5L3.53337 12.5L3.53337 14.5L4.53337 14.5L4.53337 12.5ZM24 14.5L25 14.5L25 12.5L24 12.5L24 14.5ZM15.2071 24.2929L3.70714 12.7929L2.29293 14.2071L13.7929 25.7071L15.2071 24.2929ZM3.70714 14.2071L15.2071 2.70718L13.7929 1.29297L2.29293 12.7929L3.70714 14.2071ZM4.53337 14.5L24 14.5L24 12.5L4.53337 12.5L4.53337 14.5Z" fill="white"/>
</svg>
