<svg width="25" height="24" viewBox="0 0 25 24" fill="none" xmlns="http://www.w3.org/2000/svg">
<path d="M21.7316 2.42877C21.7316 2.42877 23.8131 1.55223 23.6396 3.68098C23.5818 4.55752 23.0615 7.62543 22.6567 10.9437L21.2691 20.7735C21.2691 20.7735 21.1535 22.2136 20.1128 22.4639C19.072 22.7143 17.511 21.5875 17.2219 21.337C16.9907 21.1491 12.8857 18.3317 11.4403 16.9543C11.0355 16.5786 10.573 15.8273 11.498 14.9507L17.5688 8.68975C18.2626 7.93848 18.9565 6.18542 16.0656 8.31417L7.97122 14.2621C7.97122 14.2621 7.04613 14.8882 5.31165 14.3247L1.55352 13.0725C1.55352 13.0725 0.165912 12.1333 2.53641 11.1942C8.31817 8.25152 15.4296 5.24617 21.7316 2.42877Z" fill="white"/>
</svg>
