<svg width="25" height="24" viewBox="0 0 25 24" fill="none" xmlns="http://www.w3.org/2000/svg">
<path d="M12.4029 0H12.3969C5.7804 0 0.399902 5.382 0.399902 12C0.399902 14.625 1.2459 17.058 2.6844 19.0335L1.1889 23.4915L5.8014 22.017C7.6989 23.274 9.9624 24 12.4029 24C19.0194 24 24.3999 18.6165 24.3999 12C24.3999 5.3835 19.0194 0 12.4029 0ZM19.3854 16.9455C19.0959 17.763 17.9469 18.441 17.0304 18.639C16.4034 18.7725 15.5844 18.879 12.8274 17.736C9.3009 16.275 7.0299 12.6915 6.8529 12.459C6.6834 12.2265 5.4279 10.5615 5.4279 8.8395C5.4279 7.1175 6.3024 6.279 6.6549 5.919C6.9444 5.6235 7.4229 5.4885 7.8819 5.4885C8.0304 5.4885 8.1639 5.496 8.2839 5.502C8.6364 5.517 8.8134 5.538 9.0459 6.0945C9.3354 6.792 10.0404 8.514 10.1244 8.691C10.2099 8.868 10.2954 9.108 10.1754 9.3405C10.0629 9.5805 9.9639 9.687 9.7869 9.891C9.6099 10.095 9.4419 10.251 9.2649 10.47C9.1029 10.6605 8.9199 10.8645 9.1239 11.217C9.3279 11.562 10.0329 12.7125 11.0709 13.6365C12.4104 14.829 13.4964 15.21 13.8849 15.372C14.1744 15.492 14.5194 15.4635 14.7309 15.2385C14.9994 14.949 15.3309 14.469 15.6684 13.9965C15.9084 13.6575 16.2114 13.6155 16.5294 13.7355C16.8534 13.848 18.5679 14.6955 18.9204 14.871C19.2729 15.048 19.5054 15.132 19.5909 15.2805C19.6749 15.429 19.6749 16.1265 19.3854 16.9455Z" fill="white"/>
</svg>
